<?xml version="1.0" encoding="UTF-8" standalone="no"?>
<svg
   xmlns:dc="http://purl.org/dc/elements/1.1/"
   xmlns:cc="http://creativecommons.org/ns#"
   xmlns:rdf="http://www.w3.org/1999/02/22-rdf-syntax-ns#"
   xmlns:svg="http://www.w3.org/2000/svg"
   xmlns="http://www.w3.org/2000/svg"
   viewBox="0 0 92.796235 123.18734"
   height="123.18734"
   width="92.796234"
   xml:space="preserve"
   id="svg3767"
   version="1.1"><metadata
     id="metadata3773"><rdf:RDF><cc:Work
         rdf:about=""><dc:format>image/svg+xml</dc:format><dc:type
           rdf:resource="http://purl.org/dc/dcmitype/StillImage" /><dc:title></dc:title></cc:Work></rdf:RDF></metadata><defs
     id="defs3771" /><g
     transform="matrix(1.3333333,0,0,-1.3333333,0.00545626,123.23468)"
     id="g3775"><path
       d="m 0.948828,83.3395 c -1.25,-7.5 4.500002,-15.75 5.750002,-33 1.25,-17.2102 2,-40.75005 2,-40.75005 0,0 6.49997,-2.75 17.74997,-3.75 11.25,-1 23,4 23,4 0,0 -1.25,27.00005 1,40.00005 2.25,13 5.75,31.5 5.75,31.5 0,0 0.5,4.25 -12.75,8.5 -20.5,3.25 -32.5,-1.75 -32.5,-1.75 0,0 -8.24997,0.75 -9.999972,-4.75"
       style="fill:#cfe9e9;fill-opacity:1;fill-rule:evenodd;stroke:none;stroke-width:0.1"
       id="path3779" /><path
       d="m 3.44883,66.8395 c 0,0 11.74997,2.1699 25.74997,2 14,-0.17 24.25,-2 24.25,-2 0,0 0.5,-4.67 0,-4 -0.5,0.6699 -12,-7.3301 -23,-6 -11,1.33 -18.6699,3.5 -20,4 -1.33005,0.5 -6.99997,6 -6.99997,6"
       style="fill:#e1a712;fill-opacity:1;fill-rule:evenodd;stroke:none;stroke-width:0.1"
       id="path3781" /><path
       d="m 13.4488,61.8395 c 0,0 23,-3.3301 29,-2 6,1.33 10,4 10,4 l -4,-22 c 0,0 1.67,-25.3301 1,-25 -0.6699,0.33 -22,-5 -23,-5 -1,0 -16.99997,6 -16.99997,6 l -2,9 v 19 l -2,14 -2,6 9.99997,-4"
       style="fill:#fbc91f;fill-opacity:1;fill-rule:evenodd;stroke:none;stroke-width:0.1"
       id="path3783" /><path
       d="m 15.4688,69.2793 -3.02,9.5602 -11.749972,2 3.109762,-13.75"
       style="fill:#edf7f7;fill-opacity:1;fill-rule:evenodd;stroke:none;stroke-width:0.1"
       id="path3785" /><path
       d="m 53.859,67.4996 2.0898,15.1699 -10.5,-2.5 c 0,0 -0.3398,-5.5504 -1.9199,-11.6402"
       style="fill:#d1eaea;fill-opacity:1;fill-rule:evenodd;stroke:none;stroke-width:0.1"
       id="path3787" /><path
       d="M 7.44883,10.8395 24.4488,5.83945 h 7 l 17,4 1,13.00005 -17,-4 -8,-1 -11,3 -4.99997,2 -1,-12"
       style="fill:#6eb3ba;fill-opacity:1;fill-rule:evenodd;stroke:none;stroke-width:0.1"
       id="path3789" /><path
       d="M 7.44883,10.8395 24.4488,5.83945 h 7 l 17,4 1,13.00005 -17,-4 -8,-1 -11,3 -4.99997,2 z"
       style="fill:none;stroke:#100f0d;stroke-width:1;stroke-linecap:round;stroke-linejoin:round;stroke-miterlimit:4;stroke-dasharray:none;stroke-opacity:1"
       id="path3791" /><path
       d="m 1.75898,81.9691 c 5.55977,-1.7394 15.10982,-3.5898 22.68982,-4.1296 10.5,-0.75 27.25,2.25 31,5"
       style="fill:none;stroke:#100f0d;stroke-width:3;stroke-linecap:round;stroke-linejoin:round;stroke-miterlimit:4;stroke-dasharray:none;stroke-opacity:1"
       id="path3793" /><path
       d="m 7.99844,22.3297 0.45039,-12.49025 8.99997,-1 c 0,0 0.22,4.81995 0.47,11.50975"
       style="fill:#c1e3e2;fill-opacity:1;fill-rule:evenodd;stroke:none;stroke-width:0.1"
       id="path3795" /><path
       d="m 49.7988,21.4594 -1.35,24.3801 4.3301,17.33 -11.4,-2.8504 c -1.4301,-5.4097 -2.6703,-9.9699 -2.9301,-10.4796 -0.4504,-0.8903 0.1496,-19.0098 0.6,-30.8598"
       style="fill:#f4d039;fill-opacity:1;fill-rule:evenodd;stroke:none;stroke-width:0.1"
       id="path3797" /><path
       d="m 39.0488,18.9797 c 0.22,-5.8305 0.4,-10.14025 0.4,-10.14025 l 11,1 -0.65,11.61995"
       style="fill:#81bfc4;fill-opacity:1;fill-rule:evenodd;stroke:none;stroke-width:0.1"
       id="path3799" /><path
       d="m 8.44883,23.8395 c 0,0 7.66997,-5.67 17.99997,-6 10.3301,-0.3301 22,4 22,4"
       style="fill:none;stroke:#100f0d;stroke-width:3;stroke-linecap:round;stroke-linejoin:round;stroke-miterlimit:4;stroke-dasharray:none;stroke-opacity:1"
       id="path3801" /><path
       d="M 18.2086,60.5895 15.4688,69.2793 3.80859,67.0895 4.22852,65.2496"
       style="fill:#f2db79;fill-opacity:1;fill-rule:evenodd;stroke:none;stroke-width:0.1"
       id="path3803" /><path
       d="m 17.4488,20.8395 c 0,0 2,32.6699 1,39 l -13.74997,4.75 2.75,-26.75 0.5,-13.25 9.49997,-3.75"
       style="fill:#fbdc5d;fill-opacity:1;fill-rule:evenodd;stroke:none;stroke-width:0.1"
       id="path3805" /><path
       d="m 52.7789,63.1695 1.0801,4.3301 -10.3301,1.0297 c -0.7004,-2.6898 -1.4504,-5.5496 -2.15,-8.2102"
       style="fill:#ddb317;fill-opacity:1;fill-rule:evenodd;stroke:none;stroke-width:0.1"
       id="path3807" /><path
       d="m 1.69883,83.0895 c -1.250002,-7.5 3.75,-15.5 5,-32.75 1.25,-17.2102 2,-40.75005 2,-40.75005 0,0 6.49997,-3.75 17.74997,-4.75 11.25,-1 23,5 23,5 0,0 -1.25,27.00005 1,40.00005 2.25,13 5.67,30.1699 5.67,30.1699 -0.17,-0.8399 0,6.8301 -12.67,9.8301 -20.5,3.25 -32.5,-1.75 -32.5,-1.75 0,0 -7.49997,0.5 -9.24997,-5 z"
       style="fill:none;stroke:#100f0d;stroke-width:3;stroke-linecap:round;stroke-linejoin:round;stroke-miterlimit:4;stroke-dasharray:none;stroke-opacity:1"
       id="path3809" /><path
       d="m 67.4488,6.83945 c -3.6699,1 -2.6699,0 -10,-3 -7.33,-2.999997 -14,2.66993 -19,2 -5,-0.66992 -4,-5.669919 -12,-4 -8,1.66993 -14.33,10.33005 -10,15.00005 4.3301,4.6699 9.17,5.6699 8.5,13.33 -0.6699,7.67 -4.1699,12.3399 -4.5,17.67 -0.33,5.33 3.67,14.6699 8,10 4.3301,-4.67 5.17,-9.67 5.17,-14.67 0,-5 2.4101,-11.1601 2.5,-15.5 0.1601,-8.6601 -7.3399,-12.83 -6.8399,-17.1601 5,8.8301 7.8399,4.6601 13.1699,4.3301 5.3301,-0.3301 6.3301,-6.00005 11,-6.00005 4.67,0 17.67,-3 14,-2"
       style="fill:#a1cd3f;fill-opacity:1;fill-rule:evenodd;stroke:none;stroke-width:0.1"
       id="path3819" /><path
       d="m 19.4488,64.8395 c -4.6699,-7.3301 -6.6699,-15 0,-19 6.67,-4 13.67,-4.67 16,0 2.3301,4.6699 3.17,8.58 3.5,11.25 0.3301,2.6699 -2.1699,7.6699 -6.5,10 -4.33,2.33 -8.33,5.08 -13,-2.25"
       style="fill:#a1cd3f;fill-opacity:1;fill-rule:evenodd;stroke:none;stroke-width:0.1"
       id="path3821" /><path
       d="m 26.4488,67.8395 c 0,0 -2.5,-8 -2,-13 0.5,-5 4,-11 4,-11 0,0 3.17,-8.67 3,-14 -0.1699,-5.3301 -1.1699,-9.3301 -4,-12 -2.83,-2.67 -3.83,-0.3301 -4,-5 -0.1699,-4.66997 1.17,-9.00005 3,-9.00005 1.8301,0 2.8301,7.66995 6,10.00005 3.17,2.33 4.5,2.1699 9,1 4.5,-1.17 2.8301,-2.17 7,-4 4.17,-1.83012 14,-3.00005 14,-3.00005 0,0 -1.83,-5 -6,-5 -4.1699,0 -5.5,0.33008 -10,2 -4.5,1.66993 -5.6699,1.5 -9,0 -3.33,-1.5 -4.1699,-2.83007 -8,-3 -3.83,-0.16992 -10.83,1.16993 -12,5 -1.1699,3.83005 -0.6699,8.83005 0,11.00005 0.67,2.1699 6.3301,6 7,9 0.67,3 1.17,7.6699 0,12 -1.1699,4.33 -1,3.6699 -3,6 -2,2.33 -5.83,2.83 -6,7 -0.1699,4.1699 0.8301,11.1699 2,13 1.17,1.83 7.5,4.6699 8,5 0.5,0.33 1,-1 1,-1 v -1"
       style="fill:#599d32;fill-opacity:1;fill-rule:evenodd;stroke:none;stroke-width:0.1"
       id="path3823" /><path
       d="m 20.4488,55.8395 c 0,1.1 0.8996,2 2,2 1.1,0 2,-0.9 2,-2 0,-1.1 -0.9,-2 -2,-2 -1.1004,0 -2,0.9 -2,2"
       style="fill:#11100e;fill-opacity:1;fill-rule:evenodd;stroke:none;stroke-width:0.1"
       id="path3825" /><path
       d="m 33.5785,41.2191 c 0,-0.2597 2.4504,-9.2097 2.5403,-13.5496 0.1601,-8.6601 -7.3399,-12.83 -6.8399,-17.1601 5,8.8301 7.8399,4.6601 13.1699,4.3301 5.3301,-0.3301 6.3301,-6.00005 11,-6.00005 4.67,0 17.67,-3 14,-2 -3.6699,1 -2.6699,0 -10,-3 -7.33,-2.999997 -14,2.66993 -19,2 -5,-0.66992 -4,-5.669919 -12,-4 -8,1.66993 -14.33,10.33005 -10,15.00005 4.3301,4.6699 9.17,5.6699 8.5,13.33 -0.5699,6.5602 -1.5402,8.0899 -2.5,12.5496"
       style="fill:none;stroke:#100f0d;stroke-width:3;stroke-linecap:round;stroke-linejoin:round;stroke-miterlimit:4;stroke-dasharray:none;stroke-opacity:1"
       id="path3827" /><path
       d="m 19.4488,64.8395 c -5.9703,-6.32 -6.4,-12.8 -1.5,-18.8301 4.3301,-5.3399 16.4399,-4.7598 19,-0.8399 2.5,3.8399 1.67,9.25 2,11.92 0.3301,2.6699 -2.1699,7.6699 -6.5,10 -4.33,2.33 -10.1699,0.75 -13,-2.25 z"
       style="fill:none;stroke:#100f0d;stroke-width:3;stroke-linecap:round;stroke-linejoin:round;stroke-miterlimit:4;stroke-dasharray:none;stroke-opacity:1"
       id="path3829" /><path
       d="m 30.4488,55.8395 c 0,1.1 0.8996,2 2,2 1.1,0 2,-0.9 2,-2 0,-1.1 -0.9,-2 -2,-2 -1.1004,0 -2,0.9 -2,2"
       style="fill:#11100e;fill-opacity:1;fill-rule:evenodd;stroke:none;stroke-width:0.1"
       id="path3831" /></g></svg>