<svg width="32" height="32" viewBox="0 0 32 32" fill="none" xmlns="http://www.w3.org/2000/svg">
<g clip-path="url(#clip0_272_150)">
<path d="M22.7701 32H8.85039C8.75465 32 8.65991 31.9806 8.57192 31.9428C8.48393 31.9051 8.40454 31.8499 8.33857 31.7805C8.27261 31.7111 8.22145 31.629 8.1882 31.5392C8.15496 31.4495 8.14033 31.3538 8.1452 31.2582L8.26431 28.912C8.27352 28.7312 8.35185 28.5609 8.48309 28.4362C8.61434 28.3115 8.78847 28.2421 8.9695 28.2421H9.62805L10.5456 25.1441C10.5889 24.9984 10.6781 24.8705 10.7999 24.7797C10.9218 24.6888 11.0698 24.6398 11.2218 24.6399H12.7771C13.0204 24.3803 13.2359 24.0986 13.2882 23.9637C13.2662 23.8194 13.1124 23.3688 13.009 23.0663C12.774 22.3788 12.5314 21.6679 12.5314 21.1235C12.5314 20.6193 12.6095 19.8782 12.6725 19.2827C12.7009 19.0142 12.7318 18.7155 12.7418 18.563C12.7015 18.4703 12.6095 18.2983 12.5332 18.1546C12.1684 17.4677 11.5583 16.3189 11.5583 15.1013C11.5523 14.2693 11.7153 13.4448 12.0373 12.6776L11.8621 12.5472C11.3208 12.1476 10.983 11.8836 10.8746 11.4979C10.8613 11.4525 9.55621 6.47902 10.9565 5.64843C11.4972 5.32766 12.0959 5.11024 12.5767 4.93568C12.8181 4.84808 13.045 4.76553 13.1956 4.69431C13.4754 4.56071 13.6455 4.45988 13.6997 4.39497C13.6941 4.38363 13.689 4.37229 13.6833 4.36031C13.5485 4.06286 13.2977 3.50955 13.2422 2.37709C13.2063 1.63472 13.3884 1.04738 13.7842 0.633978C14.386 0.00378418 15.2878 0.00378418 15.584 0.00378418H16.0352C16.3314 0.00378418 17.2326 0.00378418 17.8363 0.633978C18.2308 1.04865 18.413 1.63536 18.377 2.37709C18.3209 3.51144 18.0695 4.06349 17.9359 4.36094C17.9309 4.37103 17.9277 4.38048 17.9233 4.3893C17.9813 4.46303 18.1508 4.5626 18.4275 4.69431C18.5774 4.76553 18.8056 4.84871 19.0469 4.93694C19.5265 5.11087 20.1246 5.32829 20.664 5.64843C22.0599 6.4765 20.7592 11.4519 20.7447 11.5017C20.6375 11.8829 20.2998 12.1476 19.7584 12.5472L19.5832 12.6776C19.9052 13.4448 20.0682 14.2693 20.0622 15.1013C20.0622 16.3182 19.4521 17.4683 19.0873 18.1546C19.011 18.2983 18.919 18.4697 18.8787 18.563C18.8888 18.7161 18.9196 19.0142 18.948 19.2827C19.011 19.8782 19.0892 20.6199 19.0892 21.1235C19.0892 21.6686 18.8459 22.3801 18.6108 23.0689C18.51 23.3632 18.3619 23.7967 18.3342 23.9688C18.3903 24.1062 18.6033 24.3835 18.8434 24.6399H20.3987C20.5509 24.6398 20.699 24.6888 20.821 24.7797C20.9431 24.8705 21.0326 24.9983 21.0762 25.1441L21.9931 28.2421H22.651C22.832 28.2421 23.006 28.3116 23.1372 28.4363C23.2683 28.561 23.3465 28.7313 23.3556 28.912L23.4753 31.2589C23.4801 31.3543 23.4654 31.4498 23.4322 31.5394C23.399 31.629 23.348 31.7109 23.2821 31.7802C23.2163 31.8495 23.1371 31.9047 23.0493 31.9425C22.9615 31.9803 22.867 31.9998 22.7714 32H22.7701ZM9.59339 30.5883H22.0271L21.9799 29.6512H21.4662C21.3142 29.6512 21.1662 29.6022 21.0443 29.5113C20.9223 29.4205 20.833 29.2928 20.7894 29.1471L19.8719 26.0497H18.5484C18.3679 26.0498 18.1941 25.9806 18.0632 25.8562C17.6498 25.4655 16.9522 24.7099 16.9181 24.052C16.9018 23.7161 17.0354 23.3058 17.2729 22.6101C17.4431 22.1129 17.6756 21.4323 17.6756 21.1222C17.6756 20.693 17.6019 19.9923 17.542 19.4289C17.491 18.9449 17.4626 18.6626 17.4626 18.4899C17.4626 18.1987 17.6038 17.9322 17.8407 17.491C18.1634 16.8835 18.6512 15.966 18.6512 15.1001C18.6548 14.3958 18.5043 13.6993 18.21 13.0595C18.1364 12.913 18.0854 12.7562 18.0588 12.5944C18.0014 12.0865 18.3859 11.8029 18.9177 11.4103C19.0884 11.2899 19.2525 11.1606 19.4093 11.0227C19.6355 10.1373 20.0584 7.45456 19.846 6.80672C19.4414 6.58237 18.9757 6.41348 18.5617 6.26287C18.2875 6.1633 18.0285 6.06877 17.8181 5.96794C17.3542 5.74737 16.4902 5.33774 16.4902 4.35779C16.4902 4.12462 16.574 3.93934 16.6484 3.77675C16.7581 3.53539 16.9232 3.17114 16.9635 2.30714C16.9749 2.07334 16.9578 1.76139 16.8104 1.607C16.6875 1.47781 16.4253 1.41227 16.0321 1.41227H15.5809C15.1876 1.41227 14.9261 1.47529 14.8026 1.607C14.6557 1.76139 14.6381 2.07334 14.6494 2.3084C14.6923 3.17114 14.8574 3.53602 14.9645 3.77675C15.0389 3.93997 15.1221 4.12462 15.1221 4.35779C15.1221 5.33396 14.2606 5.74422 13.7987 5.96794C13.5863 6.06877 13.3279 6.16267 13.055 6.26161C12.6397 6.41285 12.1728 6.58111 11.7682 6.80672C11.5546 7.45645 11.9793 10.1467 12.2049 11.0227C12.3619 11.1604 12.526 11.2897 12.6965 11.4103C13.2277 11.8029 13.6115 12.0859 13.5554 12.5932C13.5294 12.7556 13.4786 12.9131 13.4048 13.0601C13.1101 13.6996 12.9595 14.396 12.9637 15.1001C12.9637 15.966 13.4514 16.8841 13.7741 17.4917C14.0092 17.9328 14.1522 18.1994 14.1522 18.4905C14.1522 18.6632 14.1232 18.9455 14.0722 19.4295C14.0129 19.9929 13.9386 20.693 13.9386 21.1222C13.9386 21.4316 14.1705 22.1122 14.3406 22.6082C14.5789 23.3058 14.7131 23.7167 14.6954 24.052C14.6627 24.7105 13.9644 25.4655 13.5516 25.8568C13.4206 25.981 13.2469 26.0502 13.0664 26.0503H11.743L10.8317 29.1471C10.7885 29.2928 10.6993 29.4207 10.5774 29.5115C10.4555 29.6024 10.3075 29.6514 10.1555 29.6512H9.64065L9.59339 30.5883Z" fill="black"/>
<path d="M13.7356 28.706C13.6429 28.7063 13.5511 28.6883 13.4653 28.6531C13.3796 28.6179 13.3016 28.5662 13.2359 28.5008C13.1031 28.3689 13.0282 28.1896 13.0276 28.0024C13.027 27.8152 13.1008 27.6354 13.2328 27.5026C13.3647 27.3698 13.544 27.2949 13.7312 27.2943L17.8816 27.2704H17.8854C18.0726 27.2698 18.2524 27.3436 18.3852 27.4756C18.5179 27.6075 18.5929 27.7868 18.5934 27.974C18.594 28.1612 18.5202 28.341 18.3883 28.4738C18.2563 28.6065 18.077 28.6815 17.8898 28.682L13.74 28.706H13.7356Z" fill="black"/>
<path d="M13.9606 11.8924C13.8135 11.8934 13.6698 11.8483 13.5495 11.7636C13.4292 11.6788 13.3385 11.5586 13.2899 11.4198C13.2413 11.2809 13.2373 11.1303 13.2784 10.9891C13.3196 10.8479 13.4039 10.723 13.5195 10.632L17.5943 7.38462C17.7407 7.26762 17.9276 7.21358 18.1139 7.23438C18.3001 7.25518 18.4705 7.34912 18.5875 7.49553C18.7045 7.64195 18.7585 7.82884 18.7377 8.0151C18.7169 8.20136 18.623 8.37172 18.4766 8.48872L14.4017 11.738C14.2766 11.8383 14.121 11.8928 13.9606 11.8924Z" fill="black"/>
<path d="M16.1304 13.5643C15.9805 13.5641 15.8346 13.5162 15.7138 13.4275C15.5929 13.3388 15.5034 13.214 15.4583 13.071C15.4132 12.9281 15.4147 12.7745 15.4627 12.6325C15.5107 12.4905 15.6026 12.3675 15.7252 12.2812L18.3021 10.4663C18.3778 10.4114 18.4636 10.3721 18.5546 10.3506C18.6456 10.3292 18.74 10.326 18.8322 10.3414C18.9245 10.3567 19.0127 10.3902 19.0919 10.44C19.1711 10.4897 19.2396 10.5547 19.2934 10.6311C19.3473 10.7076 19.3854 10.7939 19.4056 10.8852C19.4258 10.9765 19.4276 11.0709 19.411 11.1629C19.3944 11.255 19.3597 11.3428 19.3089 11.4212C19.2581 11.4997 19.1922 11.5673 19.115 11.6201L16.5382 13.4351C16.4191 13.5179 16.2774 13.562 16.1323 13.5611L16.1304 13.5643Z" fill="black"/>
<path d="M15.238 9.60038C15.1384 9.60057 15.0398 9.57953 14.9488 9.53868C14.8579 9.49783 14.7767 9.43809 14.7106 9.36343L13.6909 8.21773C13.5665 8.07784 13.5027 7.89424 13.5137 7.70733C13.5246 7.52042 13.6093 7.34551 13.7492 7.22108C13.8891 7.09664 14.0727 7.03288 14.2596 7.04381C14.4465 7.05474 14.6214 7.13947 14.7459 7.27937L15.7655 8.4257C15.8559 8.52739 15.915 8.65304 15.9356 8.78752C15.9562 8.922 15.9376 9.05958 15.8818 9.18369C15.8261 9.3078 15.7357 9.41316 15.6215 9.48709C15.5072 9.56102 15.3741 9.60036 15.238 9.60038Z" fill="black"/>
</g>
<defs>
<clipPath id="clip0_272_150">
<rect width="32" height="32" fill="white"/>
</clipPath>
</defs>
</svg>
