<svg width="24" height="23" viewBox="0 0 24 23" fill="none" xmlns="http://www.w3.org/2000/svg">
<path d="M11.9979 0C10.7641 0 9.75095 1.02082 9.75095 2.25463C9.75343 2.84979 9.99096 3.41986 10.4118 3.8407C10.8326 4.26155 11.4027 4.49907 11.9979 4.50155C13.2313 4.50155 14.2521 3.48802 14.2521 2.25463C14.2477 1.65809 14.0088 1.08722 13.587 0.665351C13.1652 0.243481 12.5944 0.00448629 11.9979 0ZM11.9979 1.49995C12.0994 1.49509 12.2008 1.51089 12.296 1.54639C12.3912 1.58189 12.4783 1.63635 12.5518 1.70647C12.6254 1.77659 12.6839 1.86091 12.7239 1.95432C12.7639 2.04774 12.7846 2.1483 12.7846 2.24992C12.7846 2.35154 12.7639 2.4521 12.7239 2.54552C12.6839 2.63893 12.6254 2.72325 12.5518 2.79337C12.4783 2.86349 12.3912 2.91795 12.296 2.95345C12.2008 2.98895 12.0994 3.00475 11.9979 2.99989C11.8052 2.99068 11.6234 2.90764 11.4903 2.768C11.3572 2.62836 11.2829 2.44284 11.2829 2.24992C11.2829 2.057 11.3572 1.87148 11.4903 1.73184C11.6234 1.5922 11.8052 1.50916 11.9979 1.49995ZM3.74946 2.99989C2.51564 3.00118 1.50125 4.02071 1.50125 5.25281C1.50419 5.84808 1.7421 6.41811 2.16323 6.83884C2.58436 7.25956 3.15461 7.49694 3.74988 7.4993C4.9837 7.4993 6.0028 6.4862 6.0028 5.25281C5.99875 4.65659 5.76 4.08597 5.33824 3.66453C4.91648 3.2431 4.34567 3.00477 3.74946 3.00118V2.99989ZM3.74946 4.49984C3.94836 4.49984 4.13912 4.57885 4.27977 4.7195C4.42041 4.86015 4.49943 5.05091 4.49943 5.24981C4.49943 5.44872 4.42041 5.63948 4.27977 5.78012C4.13912 5.92077 3.94836 5.99979 3.74946 5.99979C3.55055 5.99979 3.35979 5.92077 3.21914 5.78012C3.0785 5.63948 2.99948 5.44872 2.99948 5.24981C2.99948 5.05091 3.0785 4.86015 3.21914 4.7195C3.35979 4.57885 3.55055 4.49984 3.74946 4.49984ZM11.9979 5.25281C11.7864 5.25184 11.5753 5.26846 11.3666 5.30252C11.1615 5.33784 10.9595 5.38972 10.7628 5.45766C10.3708 5.59062 10.0014 5.78269 9.66738 6.02721C9.33359 6.27436 9.04173 6.57361 8.80299 6.91347C8.56184 7.26492 8.38242 7.65492 8.27243 8.06671C8.24398 8.17784 8.2414 8.29402 8.26489 8.40631C8.28839 8.51859 8.33733 8.62399 8.40794 8.71439C8.47856 8.8048 8.56898 8.8778 8.67223 8.92778C8.77549 8.97775 8.88883 9.00338 9.00355 9.00268H15.0008C15.1149 9.00238 15.2275 8.97602 15.33 8.92563C15.4325 8.87523 15.5221 8.80211 15.592 8.71185C15.6619 8.62159 15.7103 8.51656 15.7335 8.40476C15.7567 8.29296 15.7541 8.17735 15.7259 8.06671C15.6723 7.85741 15.5997 7.65343 15.509 7.4573C15.3322 7.07883 15.093 6.73274 14.8015 6.43348C14.6552 6.28648 14.4976 6.15121 14.3301 6.02893C14.1654 5.90492 13.9915 5.79374 13.8098 5.69637C13.4378 5.50937 13.0407 5.37715 12.6308 5.30381C12.4216 5.26947 12.2099 5.25241 11.9979 5.25281ZM20.2416 5.26438C19.0078 5.26438 17.9886 6.27749 17.9886 7.5113C17.9886 8.74512 19.0078 9.75994 20.2416 9.75994C20.8377 9.75994 21.4094 9.52312 21.831 9.10158C22.2525 8.68004 22.4893 8.10831 22.4893 7.51216C22.4893 6.91601 22.2525 6.34428 21.831 5.92274C21.4094 5.5012 20.8377 5.26438 20.2416 5.26438ZM11.9979 6.75276C12.1277 6.75115 12.2574 6.76032 12.3857 6.78019C12.5116 6.80149 12.6356 6.83288 12.7564 6.87404C12.8786 6.91658 12.9972 6.9686 13.1113 7.02961C13.3397 7.14467 13.5472 7.29737 13.7249 7.4813C13.7314 7.48816 13.7361 7.49673 13.7425 7.50359H10.2648C10.2695 7.49845 10.2721 7.49202 10.2768 7.4873C10.3656 7.3968 10.4614 7.31354 10.5635 7.23831C10.8686 6.99868 11.2312 6.84336 11.6152 6.7879C11.7414 6.76607 11.8693 6.75489 11.9974 6.75447L11.9979 6.75276ZM20.2416 6.76433C20.4405 6.76433 20.6312 6.84334 20.7719 6.98399C20.9125 7.12464 20.9915 7.3154 20.9915 7.5143C20.9915 7.71321 20.9125 7.90397 20.7719 8.04461C20.6312 8.18526 20.4405 8.26428 20.2416 8.26428C20.0427 8.26428 19.8519 8.18526 19.7113 8.04461C19.5706 7.90397 19.4916 7.71321 19.4916 7.5143C19.4916 7.3154 19.5706 7.12464 19.7113 6.98399C19.8519 6.84334 20.0427 6.76433 20.2416 6.76433ZM3.74946 8.2557C3.53802 8.25473 3.32687 8.27136 3.11819 8.30542C2.91327 8.3405 2.71149 8.39195 2.51479 8.45927C2.12293 8.59364 1.75352 8.78622 1.41897 9.03053C1.25317 9.15262 1.09739 9.28776 0.953129 9.43466C0.807465 9.58361 0.674306 9.74428 0.555001 9.91507C0.308522 10.2635 0.128242 10.6543 0.0231632 11.0679C-0.00501851 11.1785 -0.00758802 11.294 0.0156506 11.4057C0.0388891 11.5174 0.0873223 11.6223 0.157259 11.7125C0.227195 11.8026 0.31679 11.8756 0.419212 11.9259C0.521635 11.9762 0.634183 12.0024 0.748279 12.0026H6.74806C6.86271 12.0024 6.9758 11.976 7.07866 11.9254C7.18151 11.8748 7.2714 11.8012 7.34141 11.7104C7.41142 11.6196 7.4597 11.514 7.48255 11.4017C7.50539 11.2893 7.50218 11.1732 7.47318 11.0623C7.42032 10.8549 7.3486 10.6528 7.2589 10.4585C7.16982 10.2672 7.06444 10.084 6.94391 9.91079C6.82382 9.74133 6.68995 9.58208 6.54364 9.43466C6.40019 9.28574 6.24514 9.14846 6.07994 9.02411C5.91326 8.90198 5.73747 8.79281 5.5541 8.69755C5.18725 8.50299 4.79079 8.37035 4.38072 8.30499C4.17202 8.27114 3.96088 8.25452 3.74946 8.25528V8.2557ZM3.74946 9.75565C3.87857 9.75423 4.00758 9.76355 4.13516 9.78351C4.26162 9.80471 4.38616 9.8361 4.50757 9.87736C4.87304 10.0007 5.20477 10.2075 5.47653 10.4812C5.48296 10.4876 5.48596 10.4962 5.49282 10.5031H2.01552C2.02023 10.4983 2.02109 10.4915 2.0258 10.4872C2.11289 10.3947 2.20734 10.3094 2.30822 10.2322C2.62056 10.0016 2.98296 9.84798 3.3659 9.78393C3.49232 9.76395 3.62019 9.75463 3.74817 9.75608L3.74946 9.75565ZM8.92598 9.75565C8.74052 9.77376 8.56845 9.86031 8.44334 9.99842C8.31823 10.1365 8.24905 10.3163 8.24929 10.5026V12.7495H0.749565C0.650856 12.7499 0.553182 12.7697 0.462132 12.8078C0.371082 12.8459 0.288443 12.9016 0.218944 12.9717C0.149445 13.0418 0.0944494 13.1249 0.0571048 13.2163C0.0197601 13.3077 0.000799091 13.4055 0.00130674 13.5042V21.7522C0.00232116 21.9501 0.0814042 22.1396 0.221362 22.2794C0.36132 22.4193 0.550837 22.4983 0.748708 22.4992H23.2479C23.4467 22.4999 23.6377 22.4216 23.7788 22.2815C23.9199 22.1414 23.9996 21.9511 24.0004 21.7522V15.7524C23.9996 15.5536 23.9199 15.3632 23.7788 15.2232C23.6377 15.0831 23.4467 15.0048 23.2479 15.0055H15.752V10.5056C15.7521 10.407 15.7327 10.3093 15.6949 10.2181C15.6572 10.127 15.6019 10.0442 15.5321 9.97443C15.4623 9.90469 15.3795 9.8494 15.2883 9.81171C15.1971 9.77402 15.0994 9.75468 15.0008 9.75479H9.00398C8.97784 9.75479 8.95212 9.75479 8.92598 9.75479V9.75565ZM20.2356 10.5142C20.0241 10.5144 19.8129 10.5321 19.6043 10.5669C19.3994 10.6006 19.1975 10.6505 19.0005 10.716C18.6097 10.8489 18.2421 11.0418 17.9107 11.2877C17.743 11.4097 17.5854 11.5448 17.4392 11.6919C17.2946 11.8407 17.1627 12.0014 17.045 12.1723C16.9243 12.3459 16.8189 12.5298 16.73 12.7217C16.6394 12.9158 16.5668 13.1177 16.5131 13.3251C16.4851 13.4356 16.4827 13.5511 16.506 13.6627C16.5293 13.7743 16.5777 13.8791 16.6477 13.9692C16.7176 14.0593 16.8071 14.1322 16.9094 14.1825C17.0118 14.2328 17.1242 14.2591 17.2382 14.2593H23.238C23.3524 14.2598 23.4653 14.234 23.5682 14.184C23.6711 14.134 23.7611 14.0611 23.8314 13.9709C23.9018 13.8807 23.9505 13.7756 23.9739 13.6637C23.9974 13.5517 23.9948 13.4359 23.9666 13.3251C23.8551 12.9137 23.6753 12.524 23.4347 12.1723C23.3158 12.0012 23.1826 11.8405 23.0366 11.6919C22.744 11.4005 22.4098 11.1541 22.0449 10.9608C21.6753 10.7664 21.2773 10.6319 20.8655 10.5622C20.6568 10.5283 20.4457 10.5117 20.2343 10.5125L20.2356 10.5142ZM9.75052 11.2496H14.2504V15.7524C14.2502 15.8511 14.2695 15.9488 14.3071 16.0399C14.3448 16.1311 14.4 16.2139 14.4697 16.2837C14.5394 16.3535 14.6222 16.4089 14.7133 16.4466C14.8045 16.4844 14.9021 16.5038 15.0008 16.5037H22.5005V21.0035H1.50125V14.2525H9.00398C9.20191 14.2519 9.39158 14.173 9.53154 14.0331C9.6715 13.8931 9.75039 13.7035 9.75095 13.5055L9.75052 11.2496ZM20.2416 12.0141C20.3697 12.0143 20.4976 12.0252 20.6238 12.0467C20.7498 12.0684 20.8737 12.1002 20.9945 12.1419C21.1182 12.1824 21.2387 12.2323 21.355 12.291C21.467 12.351 21.5741 12.4196 21.6755 12.4963C21.7777 12.5715 21.8737 12.6548 21.9626 12.7453C21.9674 12.75 21.9695 12.7564 21.9742 12.7611H18.5029C18.5076 12.7564 18.5098 12.75 18.5145 12.7453C18.6034 12.6548 18.6994 12.5715 18.8016 12.4963C19.0078 12.3419 19.2378 12.2221 19.4826 12.1419C19.7266 12.0568 19.9832 12.0133 20.2416 12.0133V12.0141Z" fill="black"/>
</svg>
