<svg width="24" height="24" viewBox="0 0 24 24" fill="none" xmlns="http://www.w3.org/2000/svg">
<path d="M5.94958 0C5.26515 0.00294091 4.60959 0.278148 4.12562 0.765702C3.64165 1.25326 3.36847 1.91368 3.36555 2.60318V17.181L0.712948 17.1576C0.688601 17.1561 0.664185 17.1561 0.639839 17.1576C0.4643 17.1742 0.301289 17.2564 0.182879 17.388C0.0644692 17.5196 -0.0007666 17.6911 6.79874e-06 17.8687V21.3969C0.00239706 22.0866 0.275378 22.7474 0.759432 23.2353C1.24349 23.7231 1.89935 23.9984 2.58404 24.001H17.096C17.7808 23.9985 18.4368 23.7233 18.9211 23.2355C19.4053 22.7477 19.6785 22.0867 19.681 21.3969V7.04458H23.2608C23.4272 7.04392 23.588 6.98409 23.7148 6.87564C23.8417 6.76718 23.9264 6.61708 23.9541 6.45182C23.9832 6.29412 23.9988 6.13422 24.001 5.97385V2.88762C23.9989 2.12257 23.6963 1.38947 23.1593 0.848493C22.6223 0.307518 21.8945 0.00265237 21.1351 0.000507852C21.0706 0.000507852 21.0106 0.015746 20.9476 0.0198095C20.8947 0.00704554 20.8406 0.0005674 20.7862 0.000507852L5.94958 0ZM5.94958 1.42222H18.6812C18.4143 1.86395 18.2717 2.37051 18.2687 2.88762V16.2713C18.2615 16.3195 18.2593 16.3683 18.2622 16.417C18.2622 16.4485 18.2622 16.4795 18.2622 16.5085V20.8168C18.2661 21.0504 18.2239 21.2825 18.1378 21.4994C18.0518 21.7164 17.9238 21.914 17.7612 22.0806C17.5986 22.2472 17.4047 22.3795 17.1908 22.4698C16.9769 22.5602 16.7473 22.6067 16.5154 22.6067C16.2835 22.6067 16.0538 22.5602 15.84 22.4698C15.6261 22.3795 15.4322 22.2472 15.2696 22.0806C15.107 21.914 14.9789 21.7164 14.8929 21.4994C14.8069 21.2825 14.7646 21.0504 14.7686 20.8168V17.9876C14.7696 17.885 14.7486 17.7834 14.707 17.6898C14.6654 17.5961 14.6042 17.5127 14.5276 17.4451C14.4509 17.3776 14.3607 17.3275 14.263 17.2984C14.1654 17.2693 14.0626 17.2618 13.9618 17.2765L4.77732 17.1957V2.60318C4.77507 2.44747 4.80386 2.29289 4.86198 2.14859C4.9201 2.00429 5.00637 1.8732 5.11567 1.76309C5.22498 1.65297 5.3551 1.56607 5.49834 1.50752C5.64158 1.44897 5.79502 1.41997 5.94958 1.42222ZM21.1331 1.42222C21.3248 1.4197 21.5152 1.45588 21.6928 1.52862C21.8704 1.60136 22.0318 1.7092 22.1674 1.84577C22.3031 1.98235 22.4102 2.14489 22.4824 2.32383C22.5547 2.50276 22.5907 2.69446 22.5882 2.88762V5.62236H19.681V2.88762C19.6784 2.6946 19.7143 2.503 19.7863 2.32414C19.8584 2.14528 19.9654 1.98277 20.1008 1.8462C20.2362 1.70962 20.3974 1.60175 20.5749 1.52893C20.7524 1.45612 20.9425 1.41983 21.1341 1.42222H21.1331ZM7.20656 5.32775C7.01935 5.32775 6.8398 5.40267 6.70742 5.53603C6.57505 5.66939 6.50068 5.85027 6.50068 6.03886C6.50068 6.22746 6.57505 6.40834 6.70742 6.5417C6.8398 6.67506 7.01935 6.74998 7.20656 6.74998H15.5642C15.7514 6.74998 15.931 6.67506 16.0633 6.5417C16.1957 6.40834 16.2701 6.22746 16.2701 6.03886C16.2701 5.85027 16.1957 5.66939 16.0633 5.53603C15.931 5.40267 15.7514 5.32775 15.5642 5.32775H7.20656ZM7.20656 8.98744C7.01935 8.98744 6.8398 9.06236 6.70742 9.19572C6.57505 9.32908 6.50068 9.50995 6.50068 9.69855C6.50068 9.88715 6.57505 10.068 6.70742 10.2014C6.8398 10.3347 7.01935 10.4097 7.20656 10.4097H15.5642C15.7514 10.4097 15.931 10.3347 16.0633 10.2014C16.1957 10.068 16.2701 9.88715 16.2701 9.69855C16.2701 9.50995 16.1957 9.32908 16.0633 9.19572C15.931 9.06236 15.7514 8.98744 15.5642 8.98744H7.20656ZM7.20656 12.6446C7.01935 12.6446 6.8398 12.7195 6.70742 12.8529C6.57505 12.9862 6.50068 13.1671 6.50068 13.3557C6.50068 13.5443 6.57505 13.7252 6.70742 13.8585C6.8398 13.9919 7.01935 14.0668 7.20656 14.0668H15.5642C15.7514 14.0668 15.931 13.9919 16.0633 13.8585C16.1957 13.7252 16.2701 13.5443 16.2701 13.3557C16.2701 13.1671 16.1957 12.9862 16.0633 12.8529C15.931 12.7195 15.7514 12.6446 15.5642 12.6446H7.20656ZM1.41177 18.588L13.3578 18.6931V20.8168C13.3581 21.4441 13.5438 22.0572 13.8913 22.5778H2.58354C2.42896 22.5802 2.27547 22.5513 2.1322 22.4928C1.98892 22.4343 1.85878 22.3474 1.74948 22.2372C1.64019 22.1271 1.55398 21.9959 1.49597 21.8516C1.43795 21.7072 1.40932 21.5526 1.41177 21.3969V18.588Z" fill="black"/>
</svg>
